Patient4_TMGait_0pt4_01_right_33_EMG.mot
version=1
nRows=29
nColumns=33
inDegrees=no
endheader
time	1LAddLong	2LGlutMax	3LGlutMed	4LIliopsoas	5LSemiMemb	6LBicFemLong	7LRecFem	8LVastMed	9LVastLat	10LGasMed	11LTibAnt	12lTibPost	13LPeroneusLong	14LSol	15LExtDigLong	16LFlexDigLong	17RAddLong	18RGlutMax	19RGlutMed	20RIliopsoas	21RSemiMemb	22RBicFemLong	23RRecFem	24RVastMed	25RVastLat	26RGasMed	27RTibAnt	28RTibPost	29RPeroneusLong	30RSol	31RExtDigLong	32RFlexDigLong
44.245	0.006561	-0.005035	0.075684	0.004272	-0.002899	0.006866	0.057526	0.016937	0.033264	0.023041	-0.048828	0.003967	-0.068207	0.077209	-0.29831	0.002136	-0.045624	-0.078278	-0.015869	0.008545	-0.075989	0.061188	-0.041504	0.036163	-0.016785	-0.007324	0.085144	-0.003357	-0.16419	0.12955	-0.00351	-0.004578
44.246	0.013123	-0.020294	0.055389	-0.019684	-0.001984	0.001526	0.099945	0.022278	0.025787	0.014496	-0.31586	0.001068	-0.005493	0.11841	0.25391	0.014038	0.029602	-0.065613	-0.028229	-0.27618	-0.057983	0.074005	-0.079346	0.041962	-0.021973	-0.00824	-0.11566	-0.001526	-0.032501	0.16785	-0.003662	-0.004578
44.247	0.008087	-0.046082	0.054626	-0.010071	-0.002594	-0.011292	0.13809	0.027313	0.1474	0.007324	-0.54581	0.003967	-0.033722	0.079193	0.12756	-0.01297	0.055084	-0.063782	-0.040283	-0.112	-0.093079	0.15106	-0.071564	0.014954	-0.032959	0.002441	-0.13489	-0.004425	-0.05722	0.014191	-0.002594	0.001526
44.248	0.012512	-0.015869	0.061798	0.005493	-0.000153	-0.034943	0.023346	0.024414	0.22705	-0.038605	-0.059052	0.002594	0.038147	-0.005798	-0.001068	0.010071	0.068512	-0.030212	-0.088959	-0.001984	-0.084229	0.34042	-0.058746	0.029907	-0.016632	0.000916	0.093231	-0.002594	0.18631	-0.0354	-0.002899	-0.007324
44.249	0.020752	-0.027161	-0.013275	0.002747	-0.000458	-0.027924	-0.16327	0.007019	0.2562	-0.040436	0.18585	0.00351	0.050812	0.015717	0.88074	0.055542	0.069122	-0.013275	-0.065765	0.10468	-0.098877	0.34576	-0.040741	0.050964	-0.02655	-0.007172	-0.13763	-0.004578	0.17441	-0.014343	-0.003815	-0.006866
44.25	0.019531	-0.018616	-0.045319	-0.00351	-0.000763	-0.016632	-0.21454	-0.012054	0.27161	-0.014038	0.58792	0.006561	-0.085907	0.14832	0.1973	-0.028076	0.048676	0.02243	-0.10422	0.18707	-0.11673	0.27832	-0.062408	0.042267	-0.029297	-0.00946	-0.24689	-0.001526	0.30716	0.025787	0.002289	-0.010529
44.251	0.010681	0.012817	-0.047607	-0.015411	0.008545	-0.016632	-0.21225	-0.009766	0.23895	0.026245	0.35095	0.003052	-0.11673	0.10269	-0.30899	-0.084229	-0.01358	0.009613	-0.10819	0.078278	0.009308	0.24872	-0.032349	-0.009613	-0.036621	0	-0.06134	-0.001831	0.088501	0.008392	-0.001678	-0.003052
44.252	0.017548	0.009918	0.19531	-0.002289	0.006409	-0.015564	-0.13229	-0.023041	0.19699	0.055542	0.080109	0.005646	-0.11627	0.047607	-0.24262	-0.72342	-0.046692	0.017395	0.071411	0.049896	0.068207	0.18112	-0.03891	-0.017548	-0.036469	-0.006409	0.002441	0.002899	-0.26733	-0.00473	0.001831	-0.01236
44.253	0.007477	-0.036011	0.18509	-0.000458	-0.001221	-0.005493	0.011902	-0.025482	-0.25543	-0.049744	-0.14267	-0.00412	0.097656	0.17532	0.23758	0.1329	-0.044861	-0.002899	-0.37827	0.11871	0.002747	0.13534	-0.073547	0.026245	-0.015106	-0.012054	0.038757	-0.00061	-0.57648	0.070801	-0.007629	-0.016022
44.254	-0.010223	-0.01358	0.042267	0.000458	-0.004272	0.021057	0.099792	-0.020599	-0.3212	-0.057831	-0.054932	0.004425	0.088959	0.25146	-0.28748	0.35553	-0.050964	-0.018921	-0.33783	0.15335	0.074615	0.1062	-0.069122	0.033417	-0.002289	-0.014496	0.094604	-0.001678	-0.35645	0.15152	-0.003662	-0.005035
44.255	-0.005035	-0.03006	0.032959	0.002899	-0.018921	0.006409	0.08194	-0.010834	-0.20599	-0.014343	0.12131	-0.001831	0.087585	0.27329	-0.061493	0.035553	-0.063629	0.022125	-0.048523	0.27634	-0.013733	0.090942	-0.019379	0.022125	-0.012207	-0.006561	0.072174	-0.000153	0.063782	0.10437	-0.001373	-0.007324
44.256	-0.005035	-0.033569	0.067444	0.003204	-0.001831	0.010223	0.055847	-0.002441	-0.095062	0.099945	0.29373	-0.005493	0.016632	0.17105	0.038147	0.21271	-0.045471	-0.061951	-0.047302	0.27023	0.024109	0.10559	-0.002747	0.062408	-0.024872	-0.015106	0.018921	-0.002289	0.70877	0.080109	-0.002899	0.00473
44.257	0.003204	-0.034027	0.094147	0.020599	0.000305	-0.013275	0.031891	-0.003052	-0.011597	0.076447	-0.32852	0.005951	-0.005035	0.034332	0.56656	0.37354	-0.023346	-0.020752	-0.16937	0.078888	0.035858	0.074463	-0.059967	0.07019	-0.0177	-0.008698	-0.13947	-0.002441	0.38025	0.051117	-0.005798	-0.002747
44.258	0.010071	-0.028076	0.045166	-0.003662	-0.00351	0.000763	0.02533	-0.006104	0.063934	-0.004578	-0.31693	0.002899	0.039825	0.09613	0.77179	0.58105	-0.035248	-0.035858	0.77225	-0.030518	0.044403	0.1062	-0.050812	0.070953	0.000916	-0.012054	-0.086517	-0.001678	0.19562	0.069733	-0.005951	0.00351
44.259	0.009613	-0.025482	0.061646	-0.009003	0.002441	0.003967	0.056	-0.00351	0.017548	-0.012512	-0.070343	0.010834	-0.002441	-0.18158	-0.003357	-0.84198	-0.027008	0.012054	0.86685	-0.13977	0.082245	0.10254	-0.066986	0.045624	-0.002594	-0.014954	-0.021362	-0.002136	0.17731	0.082855	-0.005341	0.001221
44.26	0.004578	0.005493	0.10422	-0.005493	0.001221	0.009308	0.068359	-0.002594	-0.003204	0.00351	-0.028381	0.007629	-0.0354	-0.045624	-0.36331	0.10635	-0.011902	-0.057983	0.33218	-0.16602	0.061188	0.073395	-0.059509	0.034332	0	-0.00824	-0.002594	-0.006714	0.1384	0.036774	-0.005188	0.001831
44.261	-0.001373	-0.041351	0.047455	0.01358	-0.003815	0.000916	0.051422	-0.005188	-0.001678	0.000305	0.00061	0.000916	0.011139	-0.22812	-0.26367	-0.6456	0.003357	-0.12131	0.17197	-0.14175	0.13855	0.1181	-0.080872	0.083466	-0.019379	-0.014954	0.023956	-0.000916	0.064087	0.028534	-0.002289	0.002136
44.262	0.012207	-0.033722	-0.038605	0.004425	-0.010681	0.005646	0.010681	0.003815	0.003967	-0.034485	-0.028992	-0.005951	0.1059	-0.28763	-0.23331	-0.21561	0.025787	-0.16907	0.09964	-0.070801	0.063019	0.18341	-0.062561	0.043488	-0.001984	-0.00885	0.036926	-0.002441	-0.032806	0.007935	-0.00473	-0.002136
44.263	0.00351	-0.009613	-0.044403	-0.010223	-0.015717	-0.005493	0.020294	0.003815	0.007477	0.021362	0.037079	0.002136	-0.024414	-0.10468	-0.19501	0.66132	0.019379	-0.1207	0.023346	0.036163	-0.015106	0.16586	-0.059509	0.075684	0.005341	-0.003662	0.008545	-0.001831	-0.018158	0.030365	-0.007019	-0.002899
44.264	-0.002747	0.018158	0.042877	0.001526	-0.002136	-0.011902	0.055084	0.001526	-0.013275	0.041809	-0.005341	0.006104	-0.15549	0.26825	-0.16113	0.49927	0.009003	-0.090332	0.14603	0.063477	-0.045319	0.15472	-0.033569	0.020905	-0.020752	-0.004578	-0.058899	-0.001984	0.041046	-0.01358	-0.004883	-0.003815
44.265	-0.001984	0.023956	0.13489	0.003357	-0.001373	-0.02594	0.037384	0.004883	-0.002747	-0.001678	0.29999	-0.021667	-0.10132	0.21393	0.82809	0.70374	-0.001373	-0.11902	-0.067596	0.065918	-0.13962	0.1918	-0.003662	-0.018311	-0.024872	-0.001526	-0.082703	0.005798	-0.015106	0.010681	-0.000458	0.001526
44.266	0.010376	0.001221	0.084991	0.014648	0.000305	-0.031128	0.039978	-0.001678	0.000305	-0.011749	0.45837	0.008545	-0.064392	-0.12421	0.29327	-0.75653	0.004425	-0.056305	0.089417	0.011749	-0.22369	0.29037	-0.012207	0.070496	-0.000916	0.002594	0.10361	-0.003357	-0.22705	0.000458	-0.005188	0.003967
44.267	0.007782	-0.007477	0.048981	0.007019	-0.001373	-0.020752	0.036621	0.005646	-0.002594	-0.006256	0.27634	0.004425	0.082092	-0.42145	-0.49835	0.31158	0.0354	-0.067291	0.018005	0.03479	-0.16235	0.40237	-0.007172	0.013123	0.003204	0.004425	0.15121	-0.005951	-0.18906	0.036926	-0.003204	-0.005341
44.268	-0.00412	0.023804	0.023193	0.011902	0.001373	-0.005035	0.051117	-0.000458	0.020142	0.002899	-0.25131	-0.00351	0.15503	-0.36682	-0.35629	0.46906	0.034943	-0.073242	-0.20721	0.046844	-0.10056	0.31418	0.006409	0.028229	0.015106	0.004425	-0.00061	0.006561	0.10101	0.069885	-0.00473	-0.007172
44.269	-0.001526	0.043182	0.041046	0.007477	-0.006866	-0.015869	0.056152	0.005188	-0.007935	-0.013123	-0.44907	0.003967	0.13855	-0.35339	-0.19852	-0.53802	0.085754	-0.071411	0.072479	0.004425	-0.042572	0.20447	-0.043488	0.042572	0.019073	0.010071	-0.17303	-0.005951	0.065613	0.05188	0.001373	-0.011139
44.27	0.00824	0.028534	0.047302	0.003052	-0.000916	0.011749	0.045319	0.007782	-0.007782	0.001221	-0.30075	-0.000763	0.044861	-0.39978	-0.16174	-0.06485	0.15091	-0.11704	0.014038	0.004272	-0.051117	0.059204	-0.04364	-0.011444	-0.00412	0.016479	-0.07782	-0.000458	-0.31296	0.001373	-0.003357	-0.003662
44.271	0.012665	0.021667	0.087738	-0.011749	-0.005341	0.019226	-0.001831	0.010986	-0.019836	0.031891	-0.16571	-0.005493	0.014954	-0.41748	0.22018	0.21515	0.13748	-0.031586	-0.103	-0.021667	-0.063019	-0.044861	-0.061798	-0.035095	0.009766	0.015259	0.20371	-0.002747	-0.73929	0.046234	-0.004425	-0.011292
44.272	0.013275	0.034485	0.028839	-0.001373	0.001526	0.02182	-0.006866	0.010223	0.007782	0.038452	-0.03952	0.002441	-0.028839	-0.40085	-0.17136	-0.14389	0.091553	-0.025024	-0.233	-0.029755	-0.026855	-0.090942	-0.034943	-0.051117	-0.010681	0.012512	0.40039	-0.007629	-0.699	0.036316	-0.009308	-0.003662
44.273	0.006104	0.059662	-0.040588	0.00351	0.003662	0.003357	0.021667	0.007172	0.01236	0.05127	0.0177	-0.000153	-0.052338	-0.36316	0.12772	-0.16983	0.045929	0.005035	-0.27756	-0.024261	-0.093079	-0.074615	-0.019379	-0.034332	-0.008087	0.014038	0.29159	-0.004272	-0.21851	0.019989	-0.011292	0.011749
